<?xml version="1.0" encoding="utf-8"?>
<!-- Generator: Adobe Illustrator 17.1.0, SVG Export Plug-In . SVG Version: 6.00 Build 0)  -->
<!DOCTYPE svg PUBLIC "-//W3C//DTD SVG 1.1//EN" "http://www.w3.org/Graphics/SVG/1.1/DTD/svg11.dtd">
<svg version="1.1" id="Layer_1" xmlns="http://www.w3.org/2000/svg" xmlns:xlink="http://www.w3.org/1999/xlink" x="0px" y="0px"
	 viewBox="0 0 360 360" enable-background="new 0 0 360 360" xml:space="preserve">
<ellipse opacity="0.3" fill="#FFFFFF" enable-background="new    " cx="179" cy="174.9" rx="175.5" ry="176.1"/>
<path id="Facebook_1_" fill="#FFFFFF" d="M148.8,108.6c0,5.8,0,31.9,0,31.9h-23.3v39.1h23.3v116.1h47.9V179.6h32.2
	c0,0,3-18.7,4.5-39.2c-4.2,0-36.4,0-36.4,0s0-22.7,0-26.7c0-4,5.2-9.4,10.4-9.4c5.2,0,16,0,26.1,0c0-5.3,0-23.7,0-40.7
	c-13.4,0-28.7,0-35.5,0C147.6,63.6,148.8,102.7,148.8,108.6z"/>
</svg>
