<?xml version="1.0" encoding="utf-8"?>
<!-- Generator: Adobe Illustrator 17.1.0, SVG Export Plug-In . SVG Version: 6.00 Build 0)  -->
<!DOCTYPE svg PUBLIC "-//W3C//DTD SVG 1.1//EN" "http://www.w3.org/Graphics/SVG/1.1/DTD/svg11.dtd">
<svg version="1.1" id="Layer_1" xmlns="http://www.w3.org/2000/svg" xmlns:xlink="http://www.w3.org/1999/xlink" x="0px" y="0px"
	 viewBox="0 0 648 648" style="enable-background:new 0 0 648 648;" xml:space="preserve">
<style type="text/css">
	.st0{fill:none;}
	.st1{fill:#FFFFFF;}
	.st2{fill:none;stroke:#FFFFFF;stroke-width:3.9281;stroke-linecap:round;stroke-linejoin:round;stroke-miterlimit:10;}
</style>
<g>
	<rect x="52" y="241.4" class="st0" width="538.9" height="142.3"/>
	<path class="st1" d="M56.6,296.1c0-27.2,18.2-43.1,43.8-43.1c13.2,0,25.5,4.2,30.6,6.6v23.6h-15v-15.1c-3.9-1.1-9.7-2-14.8-2
		c-16.8,0-28.4,10.4-28.4,29.2c0,19.4,12.4,29.5,29.4,29.5c11.2,0,21.4-4.3,28.7-8.6v15c-5.7,3-16.3,7.1-30,7.1
		C73.8,338.3,56.6,322.5,56.6,296.1z"/>
	<path class="st1" d="M145.4,295.7c0-25.2,17.8-42.7,42.7-42.7c24.8,0,42.7,17.5,42.7,42.7s-17.9,42.6-42.7,42.6
		C163.2,338.3,145.4,320.9,145.4,295.7z M214.8,295.7c0-18.3-11.5-29.6-26.7-29.6c-15.4,0-26.7,11.3-26.7,29.6
		c0,18.5,11.3,29.5,26.7,29.5C203.3,325.2,214.8,314.1,214.8,295.7z"/>
	<path class="st1" d="M244.7,295.7c0-25.2,17.8-42.7,42.7-42.7c24.8,0,42.7,17.5,42.7,42.7s-17.9,42.6-42.7,42.6
		C262.5,338.3,244.7,320.9,244.7,295.7z M314.1,295.7c0-18.3-11.5-29.6-26.7-29.6c-15.4,0-26.7,11.3-26.7,29.6
		c0,18.5,11.3,29.5,26.7,29.5C302.6,325.2,314.1,314.1,314.1,295.7z"/>
	<path class="st1" d="M343.6,324.3h11V267h-11v-12.4h39.7V267h-13.1v57.3h26.5v-13.2h14.4v25.6h-67.6V324.3z"/>
	<path class="st1" d="M423.6,324.3h11V267h-11v-12.4h67.6v24.1h-14.4V267h-26.5v22.2h30.9v12.4h-30.9v22.6h26.9V312h14.6v24.7h-68.2
		V324.3z"/>
	<path class="st1" d="M507.8,324.3h11V267h-11v-12.4h39.6c24.3,0,33.4,13.3,33.4,25.9c0,9.6-5.4,18.3-16.6,22l12.4,21.8h10.1v12.4
		H566l-16.8-30h-14.7v17.7h11v12.4h-37.7V324.3z M547.7,294.5c13.1,0,17.4-6.6,17.4-13.7s-4.4-13.7-17.4-13.7h-13.2v27.5H547.7z"/>
</g>
<g>
	<rect x="279" y="359.8" class="st0" width="355.4" height="47.8"/>
	<path class="st1" d="M281.6,361.6h9.7c1.1,0,2.3,0.1,3.4,0.2s2.2,0.5,3.1,1s1.6,1.1,2.2,2c0.6,0.9,0.8,2,0.8,3.4
		c0,1.5-0.4,2.7-1.2,3.7c-0.8,1-1.9,1.7-3.3,2.1v0.1c0.9,0.1,1.6,0.4,2.3,0.7c0.7,0.4,1.3,0.8,1.8,1.4c0.5,0.6,0.9,1.2,1.2,1.9
		c0.3,0.7,0.4,1.5,0.4,2.4c0,1.4-0.3,2.5-0.9,3.4c-0.6,0.9-1.3,1.7-2.3,2.2c-0.9,0.6-2,1-3.1,1.2c-1.2,0.2-2.3,0.4-3.5,0.4h-10.7
		V361.6z M287.4,372h4.2c0.4,0,0.9,0,1.3-0.1c0.4-0.1,0.8-0.3,1.2-0.5c0.3-0.2,0.6-0.5,0.8-0.9c0.2-0.4,0.3-0.8,0.3-1.3
		c0-0.5-0.1-1-0.3-1.3c-0.2-0.4-0.5-0.6-0.9-0.8c-0.4-0.2-0.8-0.3-1.2-0.4c-0.5-0.1-0.9-0.1-1.4-0.1h-3.9V372z M287.4,382.7h5.1
		c0.4,0,0.9,0,1.3-0.1c0.5-0.1,0.9-0.3,1.2-0.5c0.4-0.2,0.7-0.6,0.9-1c0.2-0.4,0.3-0.9,0.3-1.4c0-0.6-0.2-1.1-0.5-1.5
		c-0.3-0.4-0.7-0.7-1.2-0.9c-0.5-0.2-1-0.3-1.5-0.4c-0.5-0.1-1-0.1-1.5-0.1h-4.3V382.7z"/>
	<path class="st1" d="M312.9,374.6c0-2.1,0.3-4,1-5.7c0.7-1.7,1.7-3.1,2.9-4.3c1.2-1.2,2.7-2.1,4.4-2.7c1.7-0.6,3.6-1,5.6-1
		c2,0,3.9,0.3,5.6,1c1.7,0.6,3.2,1.5,4.4,2.7c1.2,1.2,2.2,2.6,2.9,4.3c0.7,1.7,1,3.6,1,5.7s-0.3,4-1,5.7c-0.7,1.7-1.7,3.1-2.9,4.3
		c-1.2,1.2-2.7,2.1-4.4,2.7s-3.6,1-5.6,1c-2,0-3.9-0.3-5.6-1s-3.2-1.5-4.4-2.7c-1.2-1.2-2.2-2.6-2.9-4.3
		C313.2,378.5,312.9,376.7,312.9,374.6z M318.8,374.6c0,1.2,0.2,2.3,0.6,3.4c0.4,1,0.9,1.9,1.6,2.6c0.7,0.7,1.6,1.3,2.6,1.7
		c1,0.4,2.1,0.6,3.3,0.6c1.2,0,2.3-0.2,3.3-0.6c1-0.4,1.8-1,2.6-1.7c0.7-0.7,1.3-1.6,1.6-2.6c0.4-1,0.6-2.1,0.6-3.4
		c0-1.2-0.2-2.3-0.6-3.3c-0.4-1-0.9-1.9-1.6-2.7c-0.7-0.7-1.6-1.3-2.6-1.7c-1-0.4-2.1-0.6-3.3-0.6c-1.2,0-2.3,0.2-3.3,0.6
		c-1,0.4-1.8,1-2.6,1.7c-0.7,0.7-1.3,1.6-1.6,2.7C319,372.3,318.8,373.4,318.8,374.6z"/>
	<path class="st1" d="M362.2,361.6h4.7l11.3,26h-6.5l-2.2-5.5h-10.1l-2.2,5.5H351L362.2,361.6z M364.4,369.1l-3.2,8.1h6.4
		L364.4,369.1z"/>
	<path class="st1" d="M389.7,361.6h10.1c1.3,0,2.6,0.1,3.8,0.4c1.2,0.3,2.2,0.7,3.1,1.3c0.9,0.6,1.6,1.4,2.1,2.4
		c0.5,1,0.8,2.3,0.8,3.8c0,1.8-0.5,3.4-1.4,4.7c-1,1.3-2.4,2.1-4.2,2.4l6.6,11h-6.9l-5.4-10.4h-2.8v10.4h-5.7V361.6z M395.4,372.3
		h3.4c0.5,0,1.1,0,1.6-0.1c0.6,0,1.1-0.1,1.6-0.3c0.5-0.2,0.9-0.5,1.2-0.9c0.3-0.4,0.5-0.9,0.5-1.7c0-0.7-0.1-1.2-0.4-1.6
		s-0.6-0.7-1-0.9c-0.4-0.2-0.9-0.3-1.4-0.4s-1.1-0.1-1.6-0.1h-3.7V372.3z"/>
	<path class="st1" d="M422.3,361.6h8.6c2.1,0,4.1,0.2,5.9,0.7c1.9,0.5,3.5,1.2,4.9,2.3c1.4,1,2.5,2.4,3.3,4.1
		c0.8,1.7,1.2,3.7,1.2,6.1c0,2.1-0.4,4-1.2,5.6c-0.8,1.6-1.9,3-3.2,4c-1.3,1.1-2.9,1.9-4.7,2.5s-3.6,0.8-5.5,0.8h-9.4V361.6z
		 M428.1,382.3h3c1.3,0,2.6-0.1,3.7-0.4c1.1-0.3,2.1-0.7,3-1.3c0.8-0.6,1.5-1.4,2-2.5s0.7-2.3,0.7-3.7c0-1.3-0.2-2.4-0.7-3.3
		c-0.5-0.9-1.1-1.7-1.9-2.3c-0.8-0.6-1.8-1.1-2.8-1.4c-1.1-0.3-2.2-0.5-3.4-0.5h-3.4V382.3z"/>
	<path class="st1" d="M471.9,367.9c-0.5-0.6-1.1-1-1.9-1.3c-0.8-0.3-1.5-0.4-2.3-0.4c-0.4,0-0.8,0-1.3,0.1c-0.4,0.1-0.9,0.3-1.2,0.5
		c-0.4,0.2-0.7,0.5-1,0.8s-0.4,0.8-0.4,1.2c0,0.8,0.3,1.4,0.9,1.8c0.6,0.4,1.3,0.8,2.2,1.1c0.9,0.3,1.9,0.6,2.9,0.9
		c1,0.3,2,0.7,2.9,1.2s1.6,1.3,2.2,2.2s0.9,2.1,0.9,3.6c0,1.4-0.3,2.7-0.8,3.8s-1.3,2-2.2,2.7c-0.9,0.7-2,1.2-3.2,1.6
		c-1.2,0.3-2.5,0.5-3.8,0.5c-1.7,0-3.3-0.3-4.7-0.8s-2.8-1.3-4-2.5l4.1-4.5c0.6,0.8,1.3,1.4,2.2,1.8c0.9,0.4,1.8,0.6,2.8,0.6
		c0.5,0,0.9-0.1,1.4-0.2c0.5-0.1,0.9-0.3,1.3-0.5c0.4-0.2,0.7-0.5,0.9-0.8c0.2-0.3,0.3-0.7,0.3-1.2c0-0.8-0.3-1.4-0.9-1.9
		c-0.6-0.5-1.4-0.8-2.3-1.2s-1.9-0.6-2.9-1c-1.1-0.3-2-0.7-2.9-1.3s-1.7-1.2-2.3-2.1s-0.9-2-0.9-3.5c0-1.4,0.3-2.6,0.8-3.7
		c0.6-1.1,1.3-1.9,2.2-2.6c0.9-0.7,2-1.2,3.2-1.6c1.2-0.4,2.4-0.5,3.7-0.5c1.5,0,2.9,0.2,4.3,0.6c1.4,0.4,2.6,1.1,3.7,2.1
		L471.9,367.9z"/>
	<path class="st1" d="M489,361.6h5.7v9.7h11.1v-9.7h5.7v26h-5.7v-11.2h-11.1v11.2H489V361.6z"/>
	<path class="st1" d="M524.3,374.6c0-2.1,0.3-4,1-5.7s1.7-3.1,2.9-4.3c1.2-1.2,2.7-2.1,4.4-2.7c1.7-0.6,3.6-1,5.6-1s3.9,0.3,5.6,1
		c1.7,0.6,3.2,1.5,4.4,2.7c1.2,1.2,2.2,2.6,2.9,4.3s1,3.6,1,5.7s-0.3,4-1,5.7s-1.7,3.1-2.9,4.3c-1.2,1.2-2.7,2.1-4.4,2.7
		s-3.6,1-5.6,1s-3.9-0.3-5.6-1s-3.2-1.5-4.4-2.7c-1.2-1.2-2.2-2.6-2.9-4.3S524.3,376.7,524.3,374.6z M530.2,374.6
		c0,1.2,0.2,2.3,0.6,3.4s0.9,1.9,1.6,2.6c0.7,0.7,1.6,1.3,2.6,1.7c1,0.4,2.1,0.6,3.3,0.6s2.3-0.2,3.3-0.6c1-0.4,1.8-1,2.6-1.7
		c0.7-0.7,1.3-1.6,1.6-2.6s0.6-2.1,0.6-3.4c0-1.2-0.2-2.3-0.6-3.3c-0.4-1-0.9-1.9-1.6-2.7c-0.7-0.7-1.6-1.3-2.6-1.7
		c-1-0.4-2.1-0.6-3.3-0.6s-2.3,0.2-3.3,0.6c-1,0.4-1.8,1-2.6,1.7c-0.7,0.7-1.3,1.6-1.6,2.7C530.4,372.3,530.2,373.4,530.2,374.6z"/>
	<path class="st1" d="M565.1,361.6h9.7c1.3,0,2.6,0.1,3.8,0.4c1.2,0.2,2.2,0.7,3.1,1.3c0.9,0.6,1.6,1.4,2.1,2.4
		c0.5,1,0.8,2.3,0.8,3.8c0,1.5-0.2,2.8-0.7,3.8c-0.5,1-1.2,1.8-2,2.5s-1.9,1-3,1.3c-1.2,0.3-2.5,0.4-3.8,0.4h-4.2v10.1h-5.7V361.6z
		 M570.8,372.6h3.8c0.5,0,1,0,1.5-0.1c0.5-0.1,0.9-0.3,1.3-0.5c0.4-0.2,0.7-0.6,0.9-1c0.2-0.4,0.3-0.9,0.3-1.5
		c0-0.7-0.2-1.2-0.5-1.6c-0.3-0.4-0.7-0.7-1.2-0.9s-1-0.4-1.6-0.4c-0.6-0.1-1.2-0.1-1.7-0.1h-2.9V372.6z"/>
</g>
<g>
	<line class="st0" x1="79.6" y1="238.2" x2="193.4" y2="238.2"/>
	<path class="st1" d="M103.1,199.7h6.6l6.9-11.9h7.3l-6.9,11.9h6l-2.1,3.5h-6l-15.6,27.2c-1.7,2.9-0.8,4,0.8,4
		c3.2,0,8.3-4.8,13.6-10.9l0.5-0.6c1,0.4,2.2,1.5,2.7,2.5c-6,7-13,13.4-19,13.4c-5.9,0-8.1-5-5-10.4l14.6-25.3H101L103.1,199.7z"/>
	<path class="st1" d="M148.6,223c1,0.4,2.2,1.5,2.7,2.5c-6,7-13,13.4-19,13.4c-5.9,0-8.1-5-5-10.4l9.5-16.5c3.2-5.4-1.8-7.2-13,6.9
		l-11.1,19.3h-7.4l29.1-50.4h7.3l-11.6,20.2c3.6-3.8,7-5.5,10.2-5.5c4.1,0,7.1,4,3.9,9.5l-10.5,18.4c-1.7,2.9-0.8,4,0.8,4
		c3.2,0,8.3-4.8,13.6-10.9L148.6,223z"/>
	<path class="st1" d="M155,224.5l-0.7,1.3c-3.4,5.9-0.7,8.7,3.8,8.7c5.1,0,11.8-4.8,17.1-10.9l0.5-0.6c1,0.4,2.2,1.5,2.7,2.5
		c-6,7-14.2,13.4-22.5,13.4c-8.6,0-12.5-7.1-8-14.9l7.6-13.1c3.1-5.3,7.8-8.4,13.7-8.4c6,0,9.7,5,5.8,11.8l-1.1,1.8
		C168.5,225.6,159.7,226.5,155,224.5z M157.1,220.9c2.7,1,7.4,1.1,10.9-4.8l1.1-1.8c4.3-7.6-3.1-8.8-7.3-1.5L157.1,220.9z"/>
</g>
<path class="st1" d="M321.4,10.1C148.1,10.1,7.5,150.6,7.5,324c0,28.4,3.8,55.8,10.8,82c10.4,38.5,28,74.2,51.2,105.3
	c57.2,76.9,148.8,126.6,251.9,126.6c41.2,0,80.6-7.9,116.6-22.4c90.8-36.4,160.7-113.9,186.5-209.5c7-26.1,10.8-53.6,10.8-82
	C635.4,150.6,494.8,10.1,321.4,10.1z M154.4,530.6l-14.2-21.7c0,0-3.2,15.5-6.9,21.7c-3.7,6.2-16.8-32.6-16.8-32.6l23.7-11.5
	l14.2,22.4V530.6z M219.7,484.8v67.4l-21.1-65.3l21.1-43.2l38.2,64.2L219.7,484.8z M332,498l-10.5,41.6v-63.2l28.8,37.9L332,498z
	 M442.3,530.6c0,0-7.8,15.3-12.1,21.7c-4.2,6.3-8.4-22.1-8.4-22.1l-33.7,22.1l42.1-44.2l48.4,31.6L442.3,530.6z M603.6,406
	c-15.6,53.8-46.2,101.3-87,137.6l-86.8-48.7l-34.4,32c0,0-61.7-54-67.5-61.7c-5.8-7.7-21.2,23.1-21.2,23.1v38.5l-90.6-123.4
	l-32.8,79l9.6,44.3l-50.1-61.7c0,0-31.7,17.9-56.8,34.6c-20.8-27.8-36.8-59.5-46.8-93.8c-7.5-26-11.6-53.5-11.6-82
	c0-162.2,131.5-293.7,293.7-293.7S615.2,161.8,615.2,324C615.2,352.5,611.1,380,603.6,406z"/>
<line class="st2" x1="59.7" y1="375.4" x2="258.2" y2="375.4"/>
<g>
</g>
<g>
</g>
<g>
</g>
<g>
</g>
<g>
</g>
<g>
</g>
</svg>
